<svg xmlns="http://www.w3.org/2000/svg" width="22" height="24" fill="none" viewBox="0 0 22 24">
  <path fill="#fff" d="M5.75 5.25C5.75 2.39 8.094 0 11 0c2.86 0 5.25 2.39 5.25 5.25V7.5h3c1.219 0 2.25 1.031 2.25 2.25v9.75c0 2.484-2.016 4.5-4.5 4.5H5a4.471 4.471 0 0 1-4.5-4.5V9.75A2.25 2.25 0 0 1 2.75 7.5h3V5.25ZM8 7.5h6V5.25c0-1.64-1.36-3-3-3-1.688 0-3 1.36-3 3V7.5ZM6.875 12A1.11 1.11 0 0 0 8 10.875 1.14 1.14 0 0 0 6.875 9.75a1.11 1.11 0 0 0-1.125 1.125c0 .656.469 1.125 1.125 1.125Zm8.25-2.25A1.11 1.11 0 0 0 14 10.875c0 .656.469 1.125 1.125 1.125a1.11 1.11 0 0 0 1.125-1.125 1.14 1.14 0 0 0-1.125-1.125Z"/>
</svg>
