<svg xmlns="http://www.w3.org/2000/svg" width="19" height="21" fill="none" viewBox="0 0 19 21">
  <path fill="#1E2832" d="M5.125 4.875C5.125 2.492 7.078.5 9.5.5c2.383 0 4.375 1.992 4.375 4.375V6.75h2.5c1.016 0 1.875.86 1.875 1.875v8.125c0 2.07-1.68 3.75-3.75 3.75h-10c-2.11 0-3.75-1.68-3.75-3.75V8.625c0-1.016.82-1.875 1.875-1.875h2.5V4.875ZM7 6.75h5V4.875c0-1.367-1.133-2.5-2.5-2.5a2.492 2.492 0 0 0-2.5 2.5V6.75Zm-.938 3.75c.508 0 .938-.39.938-.938a.95.95 0 0 0-.938-.937.925.925 0 0 0-.937.938c0 .546.39.937.938.937Zm6.875-1.875a.925.925 0 0 0-.937.938c0 .546.39.937.938.937.507 0 .937-.39.937-.938a.95.95 0 0 0-.938-.937Z"/>
</svg>
