<svg xmlns="http://www.w3.org/2000/svg" width="22" height="22" fill="none" viewBox="0 0 22 22">
  <path fill="#1E2832" d="M21.031 18.844a1.63 1.63 0 0 1 0 2.226 1.63 1.63 0 0 1-2.226 0l-4.649-4.687c-1.601 1.055-3.554 1.601-5.664 1.328-3.594-.508-6.484-3.438-6.953-6.992-.664-5.313 3.828-9.805 9.14-9.14 3.555.468 6.485 3.359 6.993 6.952a8.111 8.111 0 0 1-1.328 5.625l4.687 4.688ZM4.586 9.625c0 2.773 2.226 5 5 5 2.734 0 5-2.227 5-5 0-2.734-2.266-5-5-5-2.774 0-5 2.266-5 5Z"/>
  <path fill="#fff" d="m21.031 18.844.365-.342-.006-.006-.005-.006-.354.354Zm0 2.226.342.365.012-.011.011-.012-.365-.342Zm-2.226 0-.355.352.006.007.007.006.342-.365Zm-4.649-4.687.355-.352-.288-.29-.342.224.275.418ZM8.492 17.71l-.07.495h.006l.064-.495ZM1.54 10.719l-.496.062v.003l.496-.065Zm9.14-9.14.066-.497h-.003l-.062.496Zm6.993 6.952.496-.064-.001-.006-.495.07Zm-1.328 5.625-.415-.28-.23.342.291.292.354-.354Zm4.322 5.03a1.13 1.13 0 0 1 0 1.542l.73.684a2.13 2.13 0 0 0 0-2.91l-.73.684Zm.023 1.52a1.13 1.13 0 0 1-1.542 0l-.684.73a2.13 2.13 0 0 0 2.91 0l-.684-.73Zm-1.53.012-4.648-4.687-.71.704 4.649 4.687.71-.704Zm-5.278-4.753c-1.51.995-3.344 1.507-5.325 1.25l-.128.992c2.238.29 4.31-.292 6.003-1.407l-.55-.835Zm-5.319 1.25c-3.372-.476-6.088-3.23-6.527-6.562l-.992.131c.499 3.778 3.564 6.883 7.38 7.422l.14-.99Zm-6.527-6.558c-.623-4.99 3.594-9.206 8.583-8.583l.124-.992C5.106.377.338 5.145 1.042 10.781l.993-.124Zm8.58-8.583c3.33.44 6.085 3.155 6.562 6.527l.99-.14c-.54-3.815-3.644-6.88-7.422-7.379l-.13.992Zm6.561 6.522a7.61 7.61 0 0 1-1.247 5.28l.83.56a8.61 8.61 0 0 0 1.409-5.969l-.992.129ZM15.99 14.51l4.688 4.687.707-.707-4.688-4.687-.707.707ZM4.086 9.625c0 3.05 2.45 5.5 5.5 5.5v-1a4.485 4.485 0 0 1-4.5-4.5h-1Zm5.5 5.5c3.008 0 5.5-2.448 5.5-5.5h-1c0 2.495-2.04 4.5-4.5 4.5v1Zm5.5-5.5c0-3.01-2.49-5.5-5.5-5.5v1c2.458 0 4.5 2.042 4.5 4.5h1Zm-5.5-5.5c-3.052 0-5.5 2.492-5.5 5.5h1c0-2.46 2.005-4.5 4.5-4.5v-1Z"/>
</svg>
